<?xml version="1.0" encoding="utf-8"?>
<!-- Generator: Adobe Illustrator 15.1.0, SVG Export Plug-In . SVG Version: 6.00 Build 0)  -->
<!DOCTYPE svg PUBLIC "-//W3C//DTD SVG 1.1//EN" "http://www.w3.org/Graphics/SVG/1.1/DTD/svg11.dtd">
<svg version="1.1" id="Layer_1" xmlns="http://www.w3.org/2000/svg" xmlns:xlink="http://www.w3.org/1999/xlink" x="0px" y="0px"
	 width="24px" height="24px" viewBox="0 0 24 24" enable-background="new 0 0 24 24" xml:space="preserve">
<path fill="#393939" d="M17.371,7.936c-0.109-0.299-0.286-0.57-0.515-0.792c-0.223-0.229-0.493-0.405-0.792-0.516
	c-0.243-0.094-0.608-0.207-1.279-0.237C14.058,6.358,13.84,6.351,12,6.351s-2.058,0.007-2.785,0.04
	C8.544,6.422,8.179,6.534,7.936,6.628c-0.299,0.11-0.57,0.287-0.792,0.516C6.915,7.366,6.739,7.637,6.628,7.936
	c-0.094,0.243-0.207,0.608-0.237,1.28C6.358,9.942,6.351,10.16,6.351,12s0.007,2.059,0.04,2.785
	c0.031,0.672,0.143,1.036,0.237,1.279c0.11,0.299,0.287,0.569,0.515,0.792c0.223,0.229,0.493,0.405,0.792,0.515
	c0.243,0.096,0.608,0.207,1.279,0.238c0.727,0.033,0.944,0.04,2.785,0.04c1.84,0,2.059-0.007,2.784-0.04
	c0.672-0.031,1.037-0.143,1.28-0.238c0.601-0.23,1.075-0.706,1.307-1.307c0.095-0.243,0.207-0.607,0.238-1.279
	c0.033-0.727,0.039-0.945,0.039-2.785s-0.006-2.058-0.039-2.784C17.578,8.544,17.467,8.179,17.371,7.936z M12,15.538
	c-1.954,0-3.539-1.584-3.539-3.538S10.046,8.462,12,8.462s3.538,1.584,3.538,3.538S13.954,15.538,12,15.538z M15.678,9.148
	c-0.456,0-0.826-0.37-0.826-0.827s0.37-0.827,0.826-0.827c0.457,0,0.827,0.37,0.827,0.827S16.135,9.148,15.678,9.148z"/>
<path fill="#393939" d="M14.297,12c0,1.269-1.028,2.297-2.297,2.297S9.703,13.269,9.703,12S10.731,9.703,12,9.703
	S14.297,10.731,14.297,12z"/>
<path fill="#393939" d="M22.27,0H1.731C0.775,0,0,0.775,0,1.731V22.27C0,23.225,0.775,24,1.731,24H22.27
	c0.955,0,1.73-0.775,1.73-1.73V1.731C24,0.775,23.225,0,22.27,0L22.27,0z M18.85,14.841c-0.033,0.733-0.15,1.234-0.32,1.673
	c-0.358,0.926-1.09,1.657-2.016,2.016c-0.438,0.17-0.939,0.286-1.672,0.32c-0.735,0.033-0.971,0.041-2.842,0.041
	s-2.106-0.008-2.841-0.041c-0.733-0.034-1.234-0.15-1.672-0.32c-0.46-0.174-0.876-0.445-1.221-0.795
	c-0.351-0.345-0.622-0.762-0.795-1.221c-0.17-0.438-0.287-0.939-0.32-1.672C5.117,14.105,5.109,13.871,5.109,12
	s0.008-2.106,0.042-2.841c0.033-0.733,0.15-1.234,0.32-1.673c0.173-0.459,0.444-0.876,0.795-1.22
	c0.344-0.351,0.761-0.622,1.22-0.795c0.438-0.17,0.939-0.287,1.673-0.32C9.894,5.117,10.129,5.109,12,5.109s2.105,0.008,2.841,0.042
	c0.733,0.033,1.234,0.149,1.673,0.32c0.459,0.173,0.876,0.444,1.221,0.795c0.35,0.344,0.621,0.761,0.795,1.22
	c0.17,0.438,0.287,0.939,0.32,1.673c0.033,0.735,0.041,0.97,0.041,2.841S18.883,14.105,18.85,14.841z"/>
</svg>
