<?xml version="1.0" encoding="utf-8"?><!DOCTYPE svg PUBLIC "-//W3C//DTD SVG 1.1//EN" "http://www.w3.org/Graphics/SVG/1.1/DTD/svg11.dtd"><svg xmlns="http://www.w3.org/2000/svg" xmlns:xlink="http://www.w3.org/1999/xlink"><symbol fill="none" viewBox="0 0 24 24" id="fb" xmlns="http://www.w3.org/2000/svg"><path d="M22.27 0H1.73A1.73 1.73 0 000 1.73v20.54C0 23.224.775 24 1.73 24h11.09v-9.281H9.703v-3.633h3.117V8.412c0-3.1 1.893-4.787 4.659-4.787 1.324 0 2.463.098 2.794.142v3.24h-1.907c-1.504 0-1.796.716-1.796 1.765v2.314h3.598l-.469 3.633H16.57V24h5.7A1.73 1.73 0 0024 22.27V1.73A1.73 1.73 0 0022.27 0z" fill="#393939"/></symbol><symbol viewBox="0 0 24 24" id="instagram" xmlns="http://www.w3.org/2000/svg"><path fill="#393939" d="M17.371 7.936a2.113 2.113 0 00-.515-.792 2.148 2.148 0 00-.792-.516c-.243-.094-.608-.207-1.279-.237-.727-.033-.945-.04-2.785-.04s-2.058.007-2.785.04c-.671.031-1.036.143-1.279.237-.299.11-.57.287-.792.516a2.14 2.14 0 00-.516.792c-.094.243-.207.608-.237 1.28-.033.726-.04.944-.04 2.784s.007 2.059.04 2.785c.031.672.143 1.036.237 1.279.11.299.287.569.515.792.223.229.493.405.792.515.243.096.608.207 1.279.238.727.033.944.04 2.785.04 1.84 0 2.059-.007 2.784-.04.672-.031 1.037-.143 1.28-.238a2.275 2.275 0 001.307-1.307c.095-.243.207-.607.238-1.279.033-.727.039-.945.039-2.785s-.006-2.058-.039-2.784c-.03-.672-.141-1.037-.237-1.28zM12 15.538a3.539 3.539 0 110-7.078 3.539 3.539 0 010 7.078zm3.678-6.39a.826.826 0 110-1.653.826.826 0 010 1.653z"/><path fill="#393939" d="M14.297 12a2.296 2.296 0 11-4.593.001A2.296 2.296 0 0114.297 12z"/><path fill="#393939" d="M22.27 0H1.731C.775 0 0 .775 0 1.731V22.27C0 23.225.775 24 1.731 24H22.27A1.73 1.73 0 0024 22.27V1.731A1.73 1.73 0 0022.27 0zm-3.42 14.841c-.033.733-.15 1.234-.32 1.673a3.527 3.527 0 01-2.016 2.016c-.438.17-.939.286-1.672.32-.735.033-.971.041-2.842.041s-2.106-.008-2.841-.041c-.733-.034-1.234-.15-1.672-.32a3.405 3.405 0 01-1.221-.795 3.387 3.387 0 01-.795-1.221c-.17-.438-.287-.939-.32-1.672-.034-.737-.042-.971-.042-2.842s.008-2.106.042-2.841c.033-.733.15-1.234.32-1.673.173-.459.444-.876.795-1.22a3.375 3.375 0 011.22-.795c.438-.17.939-.287 1.673-.32.735-.034.97-.042 2.841-.042s2.105.008 2.841.042c.733.033 1.234.149 1.673.32.459.173.876.444 1.221.795.35.344.621.761.795 1.22.17.438.287.939.32 1.673.033.735.041.97.041 2.841s-.008 2.105-.041 2.841z"/></symbol><symbol viewBox="0 0 320 512" id="odnoklassniki" xmlns="http://www.w3.org/2000/svg"><path d="M275.1 334c-27.4 17.4-65.1 24.3-90 26.9l20.9 20.6 76.3 76.3c27.9 28.6-17.5 73.3-45.7 45.7-19.1-19.4-47.1-47.4-76.3-76.6L84 503.4c-28.2 27.5-73.6-17.6-45.4-45.7 19.4-19.4 47.1-47.4 76.3-76.3l20.6-20.6c-24.6-2.6-62.9-9.1-90.6-26.9-32.6-21-46.9-33.3-34.3-59 7.4-14.6 27.7-26.9 54.6-5.7 0 0 36.3 28.9 94.9 28.9s94.9-28.9 94.9-28.9c26.9-21.1 47.1-8.9 54.6 5.7 12.4 25.7-1.9 38-34.5 59.1zM30.3 129.7C30.3 58 88.6 0 160 0s129.7 58 129.7 129.7c0 71.4-58.3 129.4-129.7 129.4s-129.7-58-129.7-129.4zm66 0c0 35.1 28.6 63.7 63.7 63.7s63.7-28.6 63.7-63.7c0-35.4-28.6-64-63.7-64s-63.7 28.6-63.7 64z"/></symbol><symbol fill="none" viewBox="0 0 17 16" id="phone" xmlns="http://www.w3.org/2000/svg"><path d="M7.577 9.375C6.05 7.848 5.705 6.32 5.627 5.709a.548.548 0 01.158-.46l1.236-1.235a.552.552 0 00.078-.682L5.13.276a.552.552 0 00-.715-.201L1.257 1.563a.549.549 0 00-.303.548c.165 1.572.85 5.438 4.65 9.236 3.798 3.8 7.663 4.485 9.236 4.65a.549.549 0 00.548-.303l1.488-3.16a.552.552 0 00-.2-.713l-3.055-1.967a.552.552 0 00-.683.077l-1.236 1.236a.548.548 0 01-.459.158c-.611-.078-2.139-.423-3.666-1.95z" fill="#CDA177"/><path d="M13.642 8.552A.552.552 0 0113.09 8a4.143 4.143 0 00-4.138-4.138.552.552 0 010-1.103A5.247 5.247 0 0114.193 8a.552.552 0 01-.551.552z" fill="#CDA177"/><path d="M16.4 8.552A.552.552 0 0115.848 8a6.904 6.904 0 00-6.896-6.897.552.552 0 010-1.103 8.009 8.009 0 018 8 .552.552 0 01-.552.552z" fill="#CDA177"/></symbol><symbol viewBox="0 0 512 512" id="twitter" xmlns="http://www.w3.org/2000/svg"><path d="M459.37 151.716c.325 4.548.325 9.097.325 13.645 0 138.72-105.583 298.558-298.558 298.558-59.452 0-114.68-17.219-161.137-47.106 8.447.974 16.568 1.299 25.34 1.299 49.055 0 94.213-16.568 130.274-44.832-46.132-.975-84.792-31.188-98.112-72.772 6.498.974 12.995 1.624 19.818 1.624 9.421 0 18.843-1.3 27.614-3.573-48.081-9.747-84.143-51.98-84.143-102.985v-1.299c13.969 7.797 30.214 12.67 47.431 13.319-28.264-18.843-46.781-51.005-46.781-87.391 0-19.492 5.197-37.36 14.294-52.954 51.655 63.675 129.3 105.258 216.365 109.807-1.624-7.797-2.599-15.918-2.599-24.04 0-57.828 46.782-104.934 104.934-104.934 30.213 0 57.502 12.67 76.67 33.137 23.715-4.548 46.456-13.32 66.599-25.34-7.798 24.366-24.366 44.833-46.132 57.827 21.117-2.273 41.584-8.122 60.426-16.243-14.292 20.791-32.161 39.308-52.628 54.253z"/></symbol><symbol fill="none" viewBox="0 0 24 24" id="vk" xmlns="http://www.w3.org/2000/svg"><path d="M22.47 0H1.534C.686 0 0 .686 0 1.531v20.938C0 23.314.686 24 1.533 24h20.936c.845 0 1.531-.686 1.531-1.531V1.531A1.528 1.528 0 0022.47 0zm-2.562 14.624c.439.447 1.39 1.198 1.218 1.961-.16.702-1.206.446-2.222.486-1.16.05-1.848.075-2.546-.486-.328-.265-.521-.58-.836-.933-.286-.318-.647-.889-1.138-.867-.883.044-.607 1.274-.92 2.112-4.905.772-6.874-2.257-8.612-5.198-.842-1.424-2.058-4.483-2.058-4.483l3.469-.011S7.376 9.228 7.67 9.75c.251.444.527.796.812 1.192.238.329.616.973 1.03.92.672-.086.794-2.695.377-3.568-.166-.354-.564-.478-.976-.598.14-.878 3.89-1.06 4.497-.38.88.99-.61 3.743.596 4.546 1.694-.887 3.14-4.603 3.14-4.603l4.061.025s-.635 2.009-1.3 2.9c-.388.521-1.675 1.683-1.625 2.545.041.683 1.088 1.347 1.626 1.895z" fill="#393939"/></symbol></svg>